<?xml version="1.0" encoding="UTF-8"?>
<svg id="Layer_1" xmlns="http://www.w3.org/2000/svg" version="1.1" viewBox="0 0 810.42 676.44">
  <!-- Generator: Adobe Illustrator 30.1.0, SVG Export Plug-In . SVG Version: 2.1.1 Build 136)  -->
  <defs>
    <style>
      .st0 {
        fill: #000;
      }
    </style>
  </defs>
  <path class="st0" d="M691.14,672.96H115.7c-10.79,0-19.57-8.78-19.57-19.57,0-33.26,27.06-60.32,60.32-60.32h156.39v-29.74H72.47c-39.16,0-71.02-31.86-71.02-71.02V73.03C1.45,33.86,33.31,2,72.47,2h661.9c39.16,0,71.02,31.86,71.02,71.02v419.28c0,39.16-31.86,71.02-71.02,71.02h-240.36v29.74h156.39c33.26,0,60.32,27.06,60.32,60.32,0,10.79-8.78,19.57-19.57,19.57ZM117.15,651.96h572.53c-.76-21.02-18.09-37.89-39.29-37.89h-166.89c-5.8,0-10.5-4.7-10.5-10.5v-50.74c0-5.8,4.7-10.5,10.5-10.5h250.86c27.58,0,50.02-22.44,50.02-50.02V73.03c0-27.58-22.44-50.02-50.02-50.02H72.47c-27.58,0-50.02,22.44-50.02,50.02v419.28c0,27.58,22.44,50.02,50.02,50.02h250.86c5.8,0,10.5,4.7,10.5,10.5v50.74c0,5.8-4.7,10.5-10.5,10.5h-166.89c-21.2,0-38.54,16.87-39.29,37.89ZM722.45,509.03H84.71c-14.93,0-27.08-12.15-27.08-27.08V84.94c0-14.93,12.15-27.08,27.08-27.08h637.74c14.93,0,27.08,12.15,27.08,27.08v397.01c0,14.93-12.15,27.08-27.08,27.08ZM84.71,78.86c-3.35,0-6.08,2.73-6.08,6.08v397.01c0,3.35,2.73,6.08,6.08,6.08h637.74c3.35,0,6.08-2.73,6.08-6.08V84.94c0-3.35-2.73-6.08-6.08-6.08H84.71Z"/>
  <g>
    <path class="st0" d="M266.15,166.66h-114.77c-5.8,0-10.5-4.7-10.5-10.5s4.7-10.5,10.5-10.5h114.77c5.8,0,10.5,4.7,10.5,10.5s-4.7,10.5-10.5,10.5Z"/>
    <path class="st0" d="M208.76,220.31h-57.39c-5.8,0-10.5-4.7-10.5-10.5s4.7-10.5,10.5-10.5h57.39c5.8,0,10.5,4.7,10.5,10.5s-4.7,10.5-10.5,10.5Z"/>
    <path class="st0" d="M408.2,220.31h-89.33c-5.8,0-10.5-4.7-10.5-10.5s4.7-10.5,10.5-10.5h89.33c5.8,0,10.5,4.7,10.5,10.5s-4.7,10.5-10.5,10.5Z"/>
    <path class="st0" d="M277.63,220.31h-28.56c-5.8,0-10.5-4.7-10.5-10.5s4.7-10.5,10.5-10.5h28.56c5.8,0,10.5,4.7,10.5,10.5s-4.7,10.5-10.5,10.5Z"/>
    <path class="st0" d="M355.97,273.97h-204.59c-5.8,0-10.5-4.7-10.5-10.5s4.7-10.5,10.5-10.5h204.59c5.8,0,10.5,4.7,10.5,10.5s-4.7,10.5-10.5,10.5Z"/>
    <path class="st0" d="M266.15,327.63h-114.77c-5.8,0-10.5-4.7-10.5-10.5s4.7-10.5,10.5-10.5h114.77c5.8,0,10.5,4.7,10.5,10.5s-4.7,10.5-10.5,10.5Z"/>
    <path class="st0" d="M372.41,327.63h-62.81c-5.8,0-10.5-4.7-10.5-10.5s4.7-10.5,10.5-10.5h62.81c5.8,0,10.5,4.7,10.5,10.5s-4.7,10.5-10.5,10.5Z"/>
    <path class="st0" d="M506.8,381.29h-71.42c-5.8,0-10.5-4.7-10.5-10.5s4.7-10.5,10.5-10.5h71.42c5.8,0,10.5,4.7,10.5,10.5s-4.7,10.5-10.5,10.5Z"/>
    <path class="st0" d="M435.38,430.63h-69.81c-5.8,0-10.5-4.7-10.5-10.5s4.7-10.5,10.5-10.5h69.81c5.8,0,10.5,4.7,10.5,10.5s-4.7,10.5-10.5,10.5Z"/>
    <path class="st0" d="M393.85,381.29h-242.47c-5.8,0-10.5-4.7-10.5-10.5s4.7-10.5,10.5-10.5h242.47c5.8,0,10.5,4.7,10.5,10.5s-4.7,10.5-10.5,10.5Z"/>
    <path class="st0" d="M325.51,430.63h-174.13c-5.8,0-10.5-4.7-10.5-10.5s4.7-10.5,10.5-10.5h174.13c5.8,0,10.5,4.7,10.5,10.5s-4.7,10.5-10.5,10.5Z"/>
  </g>
</svg>