<?xml version="1.0" encoding="UTF-8"?>
<svg id="Layer_1" xmlns="http://www.w3.org/2000/svg" version="1.1" viewBox="0 0 810.42 676.44">
  <!-- Generator: Adobe Illustrator 30.1.0, SVG Export Plug-In . SVG Version: 2.1.1 Build 136)  -->
  <path d="M691.47,662.7H118.94c-5.66,0-10.2-4.7-9.99-10.36h0c.95-26.65,22.6-47.53,49.28-47.53h156.89c5.8,0,10.5-4.7,10.5-10.5v-30.74c0-5.8-4.7-10.5-10.5-10.5H84.27c-38.67,0-70.02-31.35-70.02-70.02V83.76C14.25,45.09,45.59,13.75,84.26,13.75h641.89c38.67,0,70.02,31.35,70.02,70.02v399.28c0,38.67-31.35,70.02-70.02,70.02h-230.86c-5.77,0-10.5,4.72-10.5,10.5v30.74c0,5.77,4.72,10.5,10.5,10.5h156.89c26.67,0,48.32,20.88,49.28,47.53h0c.2,5.66-4.33,10.36-9.99,10.36ZM131.2,642.7h548.01c-4.44-10.57-14.85-17.89-27.03-17.89h-166.89c-11.3,0-20.5-9.2-20.5-20.5v-50.74c0-11.3,9.2-20.5,20.5-20.5h250.86c22.07,0,40.02-17.95,40.02-40.02V73.77c0-22.07-17.95-40.02-40.02-40.02H74.27c-22.07,0-40.02,17.95-40.02,40.02v419.28c0,22.07,17.95,40.02,40.02,40.02h250.86c11.3,0,20.5,9.2,20.5,20.5v50.74c0,11.3-9.2,20.5-20.5,20.5h-166.89c-12.18,0-22.6,7.32-27.03,17.89Z"/>
  <g>
    <path d="M151.79,123.04h-50.57c-5.11,0-9.25-4.14-9.25-9.25s4.14-9.25,9.25-9.25h50.57c5.11,0,9.25,4.14,9.25,9.25s-4.14,9.25-9.25,9.25Z"/>
    <path d="M327.54,123.04h-78.72c-5.11,0-9.25-4.14-9.25-9.25s4.14-9.25,9.25-9.25h78.72c5.11,0,9.25,4.14,9.25,9.25s-4.14,9.25-9.25,9.25Z"/>
    <path d="M212.48,123.04h-25.17c-5.11,0-9.25-4.14-9.25-9.25s4.14-9.25,9.25-9.25h25.17c5.11,0,9.25,4.14,9.25,9.25s-4.14,9.25-9.25,9.25Z"/>
    <path d="M281.51,170.33H101.23c-5.11,0-9.25-4.14-9.25-9.25s4.14-9.25,9.25-9.25h180.29c5.11,0,9.25,4.14,9.25,9.25s-4.14,9.25-9.25,9.25Z"/>
    <path d="M202.36,217.61h-101.14c-5.11,0-9.25-4.14-9.25-9.25s4.14-9.25,9.25-9.25h101.14c5.11,0,9.25,4.14,9.25,9.25s-4.14,9.25-9.25,9.25Z"/>
    <path d="M296,217.61h-55.35c-5.11,0-9.25-4.14-9.25-9.25s4.14-9.25,9.25-9.25h55.35c5.11,0,9.25,4.14,9.25,9.25s-4.14,9.25-9.25,9.25Z"/>
    <path d="M414.42,264.9h-62.94c-5.11,0-9.25-4.14-9.25-9.25s4.14-9.25,9.25-9.25h62.94c5.11,0,9.25,4.14,9.25,9.25s-4.14,9.25-9.25,9.25Z"/>
    <path d="M314.89,264.9H101.23c-5.11,0-9.25-4.14-9.25-9.25s4.14-9.25,9.25-9.25h213.67c5.11,0,9.25,4.14,9.25,9.25s-4.14,9.25-9.25,9.25Z"/>
  </g>
  <g>
    <path d="M165.95,368.54h-70.36c-1.99,0-3.61-4.14-3.61-9.25s1.62-9.25,3.61-9.25h70.36c1.99,0,3.61,4.14,3.61,9.25s-1.62,9.25-3.61,9.25Z"/>
    <path d="M374.48,368.54h-165.22c-4.68,0-8.48-4.14-8.48-9.25s3.8-9.25,8.48-9.25h165.22c4.68,0,8.48,4.14,8.48,9.25s-3.8,9.25-8.48,9.25Z"/>
    <path d="M202.36,415.82h-101.14c-5.11,0-9.25-4.14-9.25-9.25s4.14-9.25,9.25-9.25h101.14c5.11,0,9.25,4.14,9.25,9.25s-4.14,9.25-9.25,9.25Z"/>
    <path d="M314.89,319.11H101.23c-5.11,0-9.25-4.14-9.25-9.25s4.14-9.25,9.25-9.25h213.67c5.11,0,9.25,4.14,9.25,9.25s-4.14,9.25-9.25,9.25Z"/>
  </g>
</svg>